<svg xmlns="http://www.w3.org/2000/svg" width="49.359" height="49.5" viewBox="0 0 49.359 49.5">
  <defs>
    <style>
      .cls-1 {
        fill: #fff;
      }
    </style>
  </defs>
  <g id="symbol-usertype-owner-parkingsite" transform="translate(-18.117 -12.007)">
    <path id="Path_86" data-name="Path 86" class="cls-1" d="M43.5,28.873H42.295v8.143H43.5c3.2,0,7.841.528,7.841-4.071S46.7,28.873,43.5,28.873Z" transform="translate(-2.587 -1.803)"/>
    <path id="Path_87" data-name="Path 87" class="cls-1" d="M63.648,20.16a8.483,8.483,0,0,0-1.85-2.472,8.483,8.483,0,0,0-2.476-1.854c-3.889-2.339-9.748-3.827-16.3-3.827-9.679,0-17.843,3.247-20.382,7.683-2.735,3.834-4.521,10.18-4.521,17.361,0,6.555,1.49,12.414,3.828,16.3a8.483,8.483,0,0,0,1.85,2.472,8.5,8.5,0,0,0,2.475,1.854c3.889,2.339,9.748,3.826,16.3,3.826,9.679,0,17.843-3.246,20.382-7.683,2.735-3.835,4.522-10.18,4.522-17.362C67.478,29.909,65.987,24.05,63.648,20.16ZM43.665,40.188H39.708V51.421H33.825V22.093h11.31c6.824,0,9.65,5.014,9.65,9.236C54.786,35.776,52.148,40.188,43.665,40.188Z" transform="translate(0 0)"/>
  </g>
</svg>
